<svg width="446" height="281" viewBox="0 0 446 281" fill="none" xmlns="http://www.w3.org/2000/svg"><path d="M180.085 23.72l-9.357-6.631L141.135 0 22.014 10.126.097 22.863 0 56.54l3.12 1.805v.036l3.119 1.779v.035l3.119 1.77v.036l3.173 1.77L24.4 70.625l-.09 31.997 28.637 16.534 9.358 3.602 26.5-14.944 7.758 4.478 9.358 3.799 21.128-11.914.045-17.956 52.902-29.825.089-32.676zm107.717 139.858l-21.915 12.736-.098 33.677 3.119 1.805v.036l3.119 1.779v.044l3.12 1.761v.036l3.172 1.779 11.87 6.846-.09 31.997 28.646 16.534 9.357 3.602 26.501-14.943 7.749 4.477 9.357 3.799 21.129-11.914.054-17.956 52.893-29.825.098-32.676-9.358-6.632-29.601-17.089-119.122 10.127zm-16.838 5.72l.456-.268 2.771-1.663 1.063-.67c.679-.42 1.35-.84 2.002-1.26l1.153-.751c.599-.384 1.18-.778 1.788-1.162l1.135-.778c.554-.375 1.099-.759 1.635-1.135l1.064-.759 1.564-1.153.965-.724 1.591-1.252.76-.607a67.31 67.31 0 0 0 2.19-1.842l.893-.741c.331-.295.635-.59.948-.894l.438-.411a44.415 44.415 0 0 0 1.725-1.716c.125-.125.241-.259.357-.385.42-.455.831-.893 1.216-1.358.152-.17.304-.349.447-.527l.375-.438c.313-.385.608-.76.894-1.144l.125-.17c.438-.59.849-1.18 1.224-1.788.215-.339.429-.679.626-1.019.089-.152.161-.313.25-.464.09-.152.277-.51.402-.769.126-.259.34-.688.501-1.028.161-.34.223-.5.322-.751.098-.25.107-.241.152-.357.161-.402.295-.796.429-1.198.172-.554.315-1.108.429-1.662 0-.063.044-.134.062-.206.018-.071 0-.205.045-.313.054-.259.089-.518.125-.768.036-.251.054-.385.072-.581.017-.197.044-.519.062-.778.018-.259 0-.241 0-.366v-.42l.09-32.677v1.055a16.746 16.746 0 0 0-2.914-10.493c-3.039-4.683-8.813-9.411-17.321-14.184-1.323-.733-2.682-1.42-3.978-2.091a94.04 94.04 0 0 0-3.119-1.654c-1.046-.527-2.073-1.135-3.119-1.671a87.459 87.459 0 0 0-23.81-9.277 81.333 81.333 0 0 0-25.919-1.484 108.6 108.6 0 0 0-27.046 6.39 192.236 192.236 0 0 0-29.056 14.05c-10.094 5.864-18.093 11.462-23.998 16.794-5.905 5.333-9.629 10.529-11.172 15.588a17.143 17.143 0 0 0-.751 5.362v-.366l-.098 33.686a17.984 17.984 0 0 0 3.182 9.974c3.158 4.839 8.89 9.641 17.196 14.408 1.054.608 2.109 1.198 3.164 1.788l1.036.527c.707.366 1.422.733 2.137 1.081.411.206.831.385 1.251.581.634.304 1.278.608 1.912.894.456.206.894.384 1.359.572.608.25 1.207.518 1.788.751l.125.053c.214.09.429.152.643.242.894.348 1.788.688 2.735 1.001l1.216.402 2.315.724.643.197 1.064.286.849.223c.938.241 1.886.474 2.824.679l.787.161c.67.143 1.331.268 2.002.384l.42.081c.852.149 1.701.283 2.547.402h.152l.42.072c.846.155 1.695.289 2.547.402h.152l.42.08 2.547.402a.964.964 0 0 1 .152 0l.42.072c.894.152 1.716.286 2.583.402h.304l.706.09c.733.089 1.466.169 2.208.241l.84.08.599.054c.679.062 1.367.098 2.047.143h.205c.787.045 1.573.071 2.36.089h4.88c.59 0 1.18-.053 1.787-.089h.787c.965-.063 1.93-.134 2.896-.232h.223c1.138-.114 2.282-.248 3.432-.403l1.153-.178c.769-.117 1.537-.224 2.306-.358l.286-.045 1.269-.241 1.788-.348 1.591-.358c.598-.134 1.206-.259 1.787-.411l1.609-.402 1.787-.474 1.636-.465 1.788-.545.5-.143 1.609-.527 1.037-.331c1.072-.366 2.154-.733 3.226-1.135a196.397 196.397 0 0 0 29.217-13.621c1.192-.679 2.36-1.353 3.504-2.02v.036zm32.256-65.433c0 .188-.045.384-.071.572a37.31 37.31 0 0 1-.125.777v.081c.097-.476.168-.956.214-1.439l-.018.009zm-.286 1.868zm-170.048 22.139c-.099-.197-.17-.394-.251-.59.143.339.295.679.474 1.01-.08-.143-.161-.277-.223-.42z" fill="#D6D8E5"/><path d="M113.16 17.366l-.098 33.677-69.884 5.953.098-33.678 69.884-5.952z" fill="#557474"/><path d="M52.071 52.866l-.098 33.678L0 56.54l.098-33.677 51.973 30.003zm118.657-35.777l-.09 33.677-68.9 40.04.098-33.685 68.892-40.032z" fill="#557474"/><path d="M96.652 78.607l-.09 33.686-15.953-9.215.098-33.677 15.945 9.206z" fill="#496262"/><path d="M117.781 66.335l-.09 33.678-21.128 12.28.09-33.686 21.128-12.272zM53.045 85.48l-.098 33.677-28.637-16.534.09-33.678L53.045 85.48z" fill="#557474"/><path d="M80.707 69.401l-.098 33.677-27.662 16.079.098-33.677 27.662-16.079z" fill="#496262"/><path d="M101.837 57.13l15.945 9.205-21.12 12.28-15.954-9.223L53.046 85.48l-28.6-16.535 27.706-16.087L.1 22.863l21.915-12.737L141.11 0l29.602 17.089-68.874 40.04zm-28.6-16.535l39.959-23.238-69.883 5.953 29.87 17.285" fill="#84B8B8"/><path d="M251.98 86.374a25.04 25.04 0 0 0-1.278-.68l-.393-.178a19.172 19.172 0 0 0-.974-.43l-.242-.106-.143-.045a23.437 23.437 0 0 0-1.787-.608l-.134-.045-.251-.062a16.255 16.255 0 0 0-1.179-.286l-.251-.063h-.125a30.7 30.7 0 0 0-1.394-.241 20.275 20.275 0 0 0-1.421-.16h-.447l-1.046-.064h-2.207c-.626 0-1.261.045-1.904.135h-.125l-.519.062-.786.09-.706.107-.805.125-.223.045h-.25c-.769.143-1.538.303-2.333.5-.563.134-1.153.286-1.788.456l-.581.179-1.269.375-.268.09-.295.098c-.894.286-1.787.59-2.726.938l-.178.072c-.894.34-1.868.715-2.843 1.108l-.447.179c-.983.41-2.002.894-3.038 1.305l-.617.277c-1.055.473-2.127.974-3.236 1.501l-.455.224a155.855 155.855 0 0 0-3.352 1.662l-.349.17a310.443 310.443 0 0 0-3.646 1.913l-.715.384a164.49 164.49 0 0 0-3.763 2.056l-.679.384c-1.359.76-2.726 1.537-4.138 2.359l-2.503 1.475-.777.465-1.368.822-.197.116c-.938.572-1.859 1.135-2.743 1.69l-.51.321-2.082 1.323-.805.527-1.68 1.127-.742.5c-.661.438-1.287.894-1.904 1.314l-.295.205c-.697.492-1.358.975-2.002 1.448l-.536.412-1.323 1.01-.581.464-1.188.974-.447.376c-.501.429-.983.894-1.439 1.269-.34.322-.661.626-.974.938l-.242.242-.67.697-.295.331-.518.59-.268.33-.179.215a15.699 15.699 0 0 0-.903 1.251l-.152.25-.25.42c-.125.233-.25.465-.358.697l-.089.197c-.071.17-.143.331-.206.492v.071a8.307 8.307 0 0 0-.321 1.126 6.023 6.023 0 0 0-.116.974v.09a.866.866 0 0 0 0 .161l-.09 33.677v-.25c.017-.327.056-.653.116-.975.079-.386.189-.766.331-1.135a.749.749 0 0 1 0-.116l.206-.482c0-.063.053-.134.089-.206.107-.232.232-.465.366-.697.134-.232.179-.313.277-.465.099-.152.081-.143.135-.214.143-.224.303-.456.464-.689.161-.232.394-.518.608-.777a4.9 4.9 0 0 1 .277-.331c.098-.107.331-.393.51-.59l.295-.33.679-.698.232-.241a27.28 27.28 0 0 1 1.019-.965c.447-.42.894-.84 1.439-1.278l.447-.376c.375-.321.769-.643 1.189-.974l.572-.456c.429-.339.893-.679 1.322-1.019l.537-.402a86.25 86.25 0 0 1 2.002-1.457l.295-.089c.607-.429 1.233-.894 1.886-1.305l.741-.5 1.681-1.118.804-.518 2.091-1.332.501-.321c.894-.555 1.787-1.118 2.753-1.69l1.528-.893.813-.492 2.503-1.466c1.4-.81 2.777-1.594 4.129-2.35l.679-.394a208.536 208.536 0 0 1 3.772-2.055l.715-.385a248.38 248.38 0 0 1 3.647-1.912l.357-.251a92.611 92.611 0 0 1 3.352-1.662l.456-.223a200.056 200.056 0 0 1 3.244-1.502l.608-.277c1.046-.456 2.056-.894 3.039-1.305l.447-.179c.974-.393 1.93-.768 2.842-1.108l.187-.071c.939-.34 1.842-.653 2.726-.894l.555-.179c.429-.143.849-.268 1.269-.384l.59-.179c.598-.161 1.188-.322 1.787-.456a39.804 39.804 0 0 1 2.324-.491l.483-.09.795-.134.706-.107.787-.09.643-.071a36.029 36.029 0 0 1 1.913-.134h2.154c.357 0 .706.018 1.046.054h.446c.483 0 .957.089 1.43.16.465.072.894.152 1.386.242l.384.089c.393.089.787.179 1.171.286l.393.107c.608.179 1.198.385 1.788.608l.384.152c.322.131.644.274.965.429.134.063.268.116.394.188.44.202.87.426 1.287.67 3.575 2.068 5.362 4.421 5.362 7.061l.09-33.677c0-2.646-1.788-5-5.363-7.061" fill="#557474"/><path d="M293.943 98.931c0 .268-.018.537-.054.805 0 .196-.045.393-.071.59a38.29 38.29 0 0 1-.125.804l-.108.527a16.917 16.917 0 0 1-.438 1.716 24.259 24.259 0 0 1-.572 1.6c-.107.259-.214.51-.33.769-.117.259-.322.715-.492 1.063l-.411.796a31.49 31.49 0 0 1-2.092 3.351l-.125.179a46.945 46.945 0 0 1-1.26 1.627l-.447.545c-.393.465-.795.894-1.215 1.394l-.358.403c-.554.589-1.126 1.179-1.725 1.787l-.438.42a83.644 83.644 0 0 1-1.787 1.68 80.348 80.348 0 0 1-2.19 1.895l-.76.617c-.527.429-1.054.894-1.6 1.296l-.956.742-1.564 1.188-1.072.787-1.636 1.18-1.126.795-1.788 1.198-1.144.768-2.011 1.305c-.348.233-.697.456-1.063.68-.894.572-1.833 1.153-2.771 1.725l-.447.277c-1.156.697-2.348 1.4-3.575 2.109a195.636 195.636 0 0 1-29.101 14.059c-1.082.402-2.154.786-3.227 1.162l-1.036.348-2.11.689-1.832.554-1.627.482-1.787.492c-.545.134-1.082.286-1.618.411s-1.206.295-1.787.429-1.064.25-1.591.358c-.528.107-1.207.241-1.788.366l-1.653.295-2.324.375-1.144.17a89.225 89.225 0 0 1-3.432.42 90.417 90.417 0 0 1-3.11.259h-.796c-.751.045-1.501.081-2.252.099h-3.933c-.947 0-1.895 0-2.842-.099h-.206c-.893-.053-1.787-.125-2.681-.196l-.849-.09a58.691 58.691 0 0 1-2.199-.25l-.706-.089a80.8 80.8 0 0 1-2.896-.447l-.402-.08a95.92 95.92 0 0 1-2.797-.546 71.087 71.087 0 0 1-2.833-.679l-.841-.223-1.707-.492a76.735 76.735 0 0 1-2.315-.715l-1.215-.402c-.894-.322-1.832-.653-2.744-1.01-.25-.098-.509-.179-.769-.286-.598-.233-1.197-.501-1.787-.751l-1.359-.572a45.228 45.228 0 0 1-1.903-.894l-1.27-.59c-.706-.348-1.412-.715-2.127-1.081l-1.036-.536a59.373 59.373 0 0 1-3.173-1.788c-8.3-4.802-14.033-9.62-17.196-14.452a20.605 20.605 0 0 1-1.395-2.458 16.98 16.98 0 0 1-1.787-7.525l-.099 33.686a17.997 17.997 0 0 0 3.182 9.974c3.224 4.904 8.989 9.739 17.295 14.506 1.054.608 2.109 1.198 3.164 1.788l1.036.527c.706.366 1.421.733 2.136 1.081.412.206.832.385 1.252.581.634.304 1.278.608 1.912.894l1.359.572c.608.25 1.207.518 1.787.751l.126.053c.214.09.429.152.643.233a47.52 47.52 0 0 0 2.735 1.01l1.216.402a84.5 84.5 0 0 0 2.314.715l.644.206 1.064.286.849.223a79.81 79.81 0 0 0 2.824.679l.786.161c.671.143 1.332.268 2.002.384l.421.081c.893.152 1.716.286 2.583.411h.303l.707.089c.732.099 1.465.179 2.207.26l.84.08.599.054c.679.062 1.368.098 2.047.143h.205c.787.044 1.573.08 2.36.098h4.88c.59 0 1.18-.054 1.787-.089h.787c.965-.063 1.931-.143 2.896-.233h.223a114.28 114.28 0 0 0 3.423-.411l1.162-.188c.769-.116 1.529-.232 2.306-.366l.286-.045 1.269-.25c.608-.125 1.207-.232 1.788-.366.581-.134 1.055-.233 1.591-.358l1.787-.42 1.609-.42 1.788-.492c.545-.152 1.09-.321 1.626-.482.537-.161 1.225-.358 1.788-.554l.5-.152 1.609-.537 1.037-.348c1.072-.376 2.145-.76 3.226-1.162a195.588 195.588 0 0 0 29.11-14.059 273.79 273.79 0 0 0 3.504-2.083h.045l.456-.277 2.77-1.716 1.064-.688 2.002-1.296 1.153-.777c.599-.403 1.18-.796 1.787-1.198l1.144-.796c.555-.393 1.1-.786 1.627-1.179.366-.259.724-.519 1.073-.787a70.505 70.505 0 0 0 1.564-1.189l.965-.741c.545-.429 1.064-.894 1.591-1.287l.76-.626a82.722 82.722 0 0 0 2.189-1.895l.849-.768c.331-.304.635-.608.948-.894l.438-.42a36.49 36.49 0 0 0 1.725-1.788l.357-.402c.42-.465.831-.894 1.216-1.394l.447-.545c.125-.152.259-.304.375-.456.313-.394.599-.778.894-1.171l.125-.179c.438-.608.849-1.215 1.224-1.787.215-.349.429-.698.626-1.046.089-.17.161-.322.25-.483.09-.161.277-.527.402-.786.126-.259.34-.715.492-1.073.152-.357.232-.509.331-.768.098-.26.107-.242.152-.367.16-.411.295-.822.42-1.233.178-.572.321-1.144.438-1.707.022-.071.04-.142.053-.215 0-.107 0-.214.054-.322.054-.268.089-.536.125-.804.036-.268.054-.393.072-.59.017-.197.044-.536.062-.804v-.814l.089-33.677v.814" fill="#557474"/><path d="M281.859 118.97c-5.959 5.326-13.848 10.847-23.667 16.561a195.585 195.585 0 0 1-29.101 14.059 107.349 107.349 0 0 1-26.938 6.551 81.112 81.112 0 0 1-25.58-1.394 87.167 87.167 0 0 1-25.097-9.965c-8.3-4.803-14.032-9.62-17.196-14.453-3.164-4.832-3.969-9.819-2.413-14.961 1.543-5.065 5.267-10.261 11.172-15.588 5.905-5.326 13.901-10.924 23.989-16.794a192.262 192.262 0 0 1 29.056-14.085 108.607 108.607 0 0 1 27.045-6.39 81.335 81.335 0 0 1 25.92 1.483 87.587 87.587 0 0 1 24.605 9.787c8.515 4.915 14.291 9.786 17.33 14.613a17.314 17.314 0 0 1 2.136 14.961c-1.555 5.065-5.309 10.264-11.261 15.597v.018zm-87.589 15.006c8.389-2.068 19.785-7.284 34.186-15.65 14.509-8.431 23.488-15.042 26.938-19.833 3.45-4.79 2.312-8.83-3.414-12.12-5.648-3.264-12.623-3.896-20.923-1.894-8.3 2.002-19.749 7.246-34.347 15.73-14.301 8.306-23.215 14.897-26.742 19.771-3.527 4.874-2.464 8.94 3.191 12.199 5.666 3.272 12.697 3.868 21.093 1.788" fill="#84B8B8"/><path d="M378.949 170.817l-.098 33.677-69.875 5.962.098-33.677 69.875-5.962z" fill="#557474"/><path d="M317.86 206.318l-.098 33.686L265.798 210l.098-33.677 51.964 29.995zm118.666-35.778l-.099 33.686-68.9 40.032.098-33.677 68.901-40.041z" fill="#557474"/><path d="M362.45 232.067l-.098 33.677-15.945-9.206.089-33.677 15.954 9.206z" fill="#445F5F"/><path d="M383.579 219.787l-.099 33.677-21.128 12.28.098-33.677 21.129-12.28zm-64.745 19.144l-.089 33.677-28.645-16.534.098-33.678 28.636 16.535z" fill="#557474"/><path d="M346.496 222.861l-.089 33.677-27.671 16.07.098-33.677 27.662-16.07z" fill="#445F5F"/><path d="M367.634 210.608l15.945 9.214-21.129 12.236-15.945-9.206-27.662 16.088-28.645-16.535 27.662-16.087-51.964-30.004 21.915-12.736 119.122-10.127 29.593 17.089-68.892 40.068zm-28.645-16.535l39.969-23.238-69.875 5.952 29.906 17.268" fill="#84B8B8"/><path d="M328.156 203.341a47.73 47.73 0 0 0 6.846 9.322c.742.894 6.436-1.313 5.238-1.93-1.198-.617-4.916-5.81-6.784-9.269a117.821 117.821 0 0 1-3.986-12.664c-1.171-4.237-2.181-10.466-3.039-13.407-.858-2.94-2.61-4.031-4.361-4.469-2.047-.473-3.37.09-3.003 2.565.661 4.362 4.057 21.263 9.089 29.817" fill="#FFCEA9"/><path d="M324.894 269.596c1.787 1.439 4.361.126 4.469.26a80.782 80.782 0 0 0 6.515 5.425c1.1.894 2.816 2.02 2.512 3.691-.563 2.967-5.363 2.056-7.15 1.144-1.788-.912-3.263-2.413-4.961-3.477-1.215-.75-2.404-1.135-2.601-2.681-.107-.894.84-4.406 1.162-4.371" fill="#6B6B6B"/><path d="M323.759 273.332c.232 1.466 1.412 1.868 2.619 2.619 1.725 1.073 3.244 2.619 5.04 3.531 1.797.911 5.801 1.68 6.972-.447-.635 2.869-5.363 1.966-7.097 1.063-1.734-.902-3.262-2.413-4.96-3.477-1.216-.75-2.404-1.144-2.592-2.681a2.45 2.45 0 0 1 0-.617" fill="#1B1B1B"/><path d="M342.796 259.264c1.788 1.439 4.862-.134 4.987 0a67.376 67.376 0 0 0 5.819 5.256c1.108.894 2.824 2.029 2.511 3.691-.554 2.976-5.318 2.056-7.15 1.144-1.832-.912-3.271-2.413-4.969-3.468-1.216-.759-2.404-1.144-2.592-2.681-.116-.894 1.046-3.977 1.358-3.942" fill="#6B6B6B"/><path d="M341.491 262.804c.232 1.466 1.412 1.868 2.61 2.619 1.734 1.072 3.253 2.618 5.05 3.53 1.796.912 5.8 1.671 6.971-.447-.634 2.869-5.318 1.966-7.096 1.064-1.779-.903-3.263-2.423-4.961-3.477-1.215-.751-2.413-1.144-2.601-2.681a2.547 2.547 0 0 1 0-.617" fill="#1B1B1B"/><path d="M301.28 212.985c-1.975 12.227 3.477 16.785 10.538 19.386 5.059 1.868 12.325 4.746 12.325 4.746s-.098 2.681-.152 8.705c-.054 5.3.644 24.659.644 24.659s2.931 1.52 5.407-.062c0 0 2.851-14.828 3.45-21.513.822-9.072 2.216-15.007 1.787-16.982-.411-1.716-10.323-6.596-13.469-9.206l20.772 6.963a36.875 36.875 0 0 0-.608 6.828c.196 7.204.59 22.782.59 22.782s2.851 2.056 5.282 0c0 0 5.228-30.844 4.594-34.928-.608-3.87-18.912-11.789-22.13-14.515a5.127 5.127 0 0 0-1.941-.955 5.131 5.131 0 0 0-2.161-.073l-24.928 4.165z" fill="#6A9A9A"/><path d="M351.09 218.08l-13.961-8.044a.8.8 0 0 0-.804 0l-24.507 14.121 14.354 8.285 24.918-14.362z" fill="#F4F4F4"/><path d="M325.555 229.484l-1.063.608c-.09.053-.081.143 0 .196l1.019.59a.367.367 0 0 0 .339 0l1.064-.607c.089-.054.071-.143 0-.197l-1.01-.59a.374.374 0 0 0-.34 0m1.493-.876l-1.064.617c-.089.053-.071.143 0 .196l1.019.59a.355.355 0 0 0 .331 0l1.064-.616c.089 0 .08-.134 0-.188l-1.019-.59a.385.385 0 0 0-.34 0" fill="#6B6B6B"/><path d="M328.585 227.732l-1.064.617c-.089 0-.08.134 0 .197l1.019.581a.385.385 0 0 0 .34 0l1.064-.617c.089-.054.071-.134 0-.197l-1.01-.581a.364.364 0 0 0-.34 0m1.475-.858l-1.064.617c-.089.045-.071.134 0 .188l1.019.59a.392.392 0 0 0 .331 0l1.063-.617c.09-.054.081-.143 0-.197l-1.019-.59a.379.379 0 0 0-.339 0m1.519-.858l-1.063.608c-.09.054-.081.143 0 .197l1.019.59a.383.383 0 0 0 .339 0l1.064-.608c.089-.054.071-.143 0-.197l-1.01-.59a.386.386 0 0 0-.34 0m1.493-.876l-1.064.617c-.089.054-.071.134 0 .197l1.019.581a.345.345 0 0 0 .331 0l1.063-.617c.09-.045.081-.134 0-.197l-1.018-.581a.385.385 0 0 0-.34 0m1.519-.867l-1.063.617c-.09 0-.081.134 0 .197l1.018.581a.385.385 0 0 0 .34 0l1.064-.617c.089-.054.071-.134 0-.197l-1.01-.581a.36.36 0 0 0-.34 0m1.493-.866l-1.037.616c-.08.054-.071.143 0 .197l1.019.59a.386.386 0 0 0 .34 0l1.063-.608c.081-.054.072-.143 0-.197l-1.019-.59a.383.383 0 0 0-.339 0m1.483-.884l-1.063.616c-.09.054-.081.143 0 .197l1.019.59a.379.379 0 0 0 .339 0l1.064-.617c.089-.045.071-.134 0-.188l-1.01-.589a.373.373 0 0 0-.34 0m1.493-.876l-1.064.616c-.08.045-.071.134 0 .197l1.019.581a.385.385 0 0 0 .34 0l1.064-.617c.08-.044.071-.134 0-.196l-1.019-.581a.352.352 0 0 0-.34 0zm1.51-.867l-1.063.607c-.09.054-.081.143 0 .197l1.018.59a.42.42 0 0 0 .34 0l1.064-.617c.089-.053.071-.143 0-.196l-1.01-.59a.374.374 0 0 0-.34 0m1.493-.867l-1.064.617c-.08.053-.071.143 0 .196l1.019.59a.374.374 0 0 0 .34 0l1.063-.608c.081-.053.072-.143 0-.196l-1.019-.59a.412.412 0 0 0-.339 0m1.51-.876l-1.063.617c-.09.053-.081.134 0 .196l1.019.581a.357.357 0 0 0 .339 0l1.064-.617c.089-.044.071-.134 0-.196l-1.01-.581a.386.386 0 0 0-.34 0m2.217-1.287l-1.788 1.037c-.089 0-.071.134 0 .196l1.019.581a.37.37 0 0 0 .331 0l1.788-1.037c.08-.044.071-.134 0-.196l-1.019-.581a.364.364 0 0 0-.34 0" fill="#3A2C6D"/><path d="M326.324 227.348l-1.064.617c-.08.044-.071.134 0 .196l1.019.581a.386.386 0 0 0 .34 0l1.064-.616c.08-.054.071-.135 0-.197l-1.019-.581a.364.364 0 0 0-.34 0zm1.51-.867l-1.063.608c-.09.053-.072.143 0 .196l1.01.59a.367.367 0 0 0 .339 0l1.064-.607c.089-.054.08-.144 0-.197l-1.019-.59a.374.374 0 0 0-.34 0" fill="#6B6B6B"/><path d="M329.345 225.605l-1.064.617c-.089 0-.08.134 0 .196l1.01.581a.35.35 0 0 0 .17.043.35.35 0 0 0 .17-.043l1.063-.616c.09-.045.081-.134 0-.197l-1.001-.563a.382.382 0 0 0-.339 0m1.501-.885l-1.063.608c-.09.054-.081.143 0 .197l1.019.589a.367.367 0 0 0 .339 0l1.064-.607c.089-.054.071-.143 0-.197l-1.01-.59a.373.373 0 0 0-.34 0m1.511-.867l-1.064.617c-.089.045-.071.134 0 .197l1.01.58a.373.373 0 0 0 .34 0l1.063-.616c.09-.054.081-.134 0-.197l-1.018-.581a.364.364 0 0 0-.34 0m1.492-.867l-1.063.608c-.09.054-.072.143 0 .197l1.01.59a.379.379 0 0 0 .339 0l1.064-.608c.089-.054.08-.143 0-.197l-1.019-.59a.386.386 0 0 0-.34 0m1.52-.876l-1.064.617c-.089.045-.08.134 0 .197l1.019.581a.385.385 0 0 0 .34 0l1.064-.617c.089 0 .071-.134 0-.197l-1.01-.581a.364.364 0 0 0-.34 0m1.466-.867l-1.064.608c-.089.054-.08.143 0 .197l1.019.59a.386.386 0 0 0 .34 0l1.063-.608c.09-.054.072-.143 0-.197l-1.01-.59a.383.383 0 0 0-.339 0m1.528-.875l-1.064.616c-.08.054-.071.134 0 .197l1.019.581a.36.36 0 0 0 .34 0l1.063-.617c.081-.045.072-.134 0-.197l-1.018-.527a.385.385 0 0 0-.34 0m1.51-.894l-1.063.608c-.09.054-.072.143 0 .197l1.018.59a.37.37 0 0 0 .331 0l1.064-.608c.089-.054.08-.143 0-.197l-1.019-.59a.386.386 0 0 0-.34 0m1.52-.893l-1.064.616c-.089.054-.08.134 0 .197l1.01.59a.373.373 0 0 0 .34 0l1.063-.617c.09-.045.081-.134 0-.197l-1.01-.58a.382.382 0 0 0-.339 0m1.51-.903l-1.063.617c-.09.044-.081.134 0 .187l1.01.59a.412.412 0 0 0 .339 0l1.064-.617c.089-.053.08-.143 0-.196l-1.01-.59a.374.374 0 0 0-.34 0" fill="#3A2C6D"/><path d="M324.822 228.224l-1.787 1.028c-.081.053-.072.143 0 .196l1.019.59a.37.37 0 0 0 .339 0l1.788-1.028c.08-.053.071-.143 0-.196l-1.019-.59a.354.354 0 0 0-.331 0" fill="#6B6B6B"/><path d="M345.781 217.704l-1.063.617a.385.385 0 0 1-.313 0l-1.073-.626a.09.09 0 0 1-.089-.089.09.09 0 0 1 .089-.089l.081-.054c.08-.045.08-.116 0-.17l-1.135-.652a.087.087 0 0 1-.063-.027.087.087 0 0 1 0-.126.086.086 0 0 1 .063-.026l.679-.393a.342.342 0 0 1 .313 0l1.064.616.214.125.161.09.161.089.894.528c.089.053.089.134 0 .187" fill="#3A2C6D"/><path d="M319.719 226.106l-1.064.616c-.089.045-.071.134 0 .197l1.01.581a.385.385 0 0 0 .34 0l1.064-.617c.089-.053.08-.134 0-.196l-1.019-.581a.35.35 0 0 0-.17-.043.35.35 0 0 0-.17.043m1.511-.867l-1.064.616c-.089.045-.072.134 0 .197l1.01.581a.385.385 0 0 0 .34 0l1.063-.617c.09-.044.081-.134 0-.196l-1.019-.581a.346.346 0 0 0-.17-.043.345.345 0 0 0-.169.043m1.51-.867l-1.064.616c-.089.045-.071.134 0 .197l1.019.581a.368.368 0 0 0 .331 0l1.064-.617c.089-.044.08-.134 0-.196l-1.019-.581a.36.36 0 0 0-.34 0" fill="#6B6B6B"/><path d="M335.512 216.989l-1.064.617c-.089.045-.071.134 0 .188l1.01.589a.373.373 0 0 0 .34 0l1.063-.616c.09-.054.081-.134 0-.197l-1.019-.581a.357.357 0 0 0-.339 0m1.51-.867l-1.063.617c-.09.045-.072.134 0 .188l1.01.59a.38.38 0 0 0 .339 0l1.064-.617c.089-.054.08-.143 0-.197l-1.019-.59a.386.386 0 0 0-.34 0m1.511-.858l-1.064.617c-.089.045-.071.134 0 .197l1.01.581a.385.385 0 0 0 .34 0l1.063-.617c.09-.054.081-.134 0-.197l-1.019-.581a.357.357 0 0 0-.339 0m1.51-.867l-1.063.617c-.09.045-.072.134 0 .188l1.01.59a.385.385 0 0 0 .339 0l1.064-.617c.089-.054.08-.143 0-.197l-1.019-.581a.358.358 0 0 0-.339 0" fill="#3A2C6D"/><path d="M324.608 223.281l-1.448.84c-.089.045-.072.135 0 .197l1.01.581a.386.386 0 0 0 .339 0l1.457-.84c.081-.054.072-.134 0-.197l-1.019-.581a.357.357 0 0 0-.339 0z" fill="#6B6B6B"/><path d="M334.01 217.856l-1.447.84c-.09.045-.081.134 0 .197l1.018.581a.385.385 0 0 0 .34 0l1.448-.84c.089-.054.08-.134 0-.197l-1.019-.581a.358.358 0 0 0-.34 0z" fill="#3A2C6D"/><path d="M332.124 218.947l-7.078 4.084c-.081.045-.072.134 0 .197l1.019.581a.385.385 0 0 0 .339 0l7.07-4.085c.089-.053.072-.134 0-.196l-1.01-.581a.352.352 0 0 0-.34 0zm-6.846 7.319l-1.063.617c-.09.054-.081.134 0 .197l1.01.581a.357.357 0 0 0 .339 0l1.064-.617c.089-.045.08-.134 0-.197l-1.01-.581a.385.385 0 0 0-.34 0zm1.502-.866l-1.064.616c-.08.045-.071.134 0 .197l1.019.581a.364.364 0 0 0 .331 0l1.063-.617c.09-.045.081-.134 0-.196l-1.019-.581a.345.345 0 0 0-.169-.043.346.346 0 0 0-.17.043m1.51-.867l-1.054.616c-.09.045-.081.134 0 .197l1.019.581a.385.385 0 0 0 .339 0l1.064-.617c.08-.053.071-.134 0-.196l-1.019-.581a.352.352 0 0 0-.34 0" fill="#6B6B6B"/><path d="M329.792 223.666l-1.064.607c-.089.054-.08.143 0 .197l1.01.59a.374.374 0 0 0 .34 0l1.063-.608c.09-.053.081-.143 0-.196l-1.01-.59a.367.367 0 0 0-.339 0zm1.501-.867l-1.063.607c-.09.054-.072.143 0 .197l1.01.59a.367.367 0 0 0 .339 0l1.064-.608c.089-.053.08-.143 0-.196l-1.019-.59a.374.374 0 0 0-.34 0m1.511-.876l-1.064.616c-.08.054-.071.143 0 .197l1.019.59a.374.374 0 0 0 .34 0l1.063-.608c.081-.053.072-.143 0-.196l-1.018-.59a.42.42 0 0 0-.34 0m1.51-.876l-1.063.617c-.09.053-.081.134 0 .196l1.01.581a.357.357 0 0 0 .339 0l1.064-.617c.089-.044.08-.134 0-.196l-1.01-.581a.386.386 0 0 0-.34 0zm1.502-.867l-1.064.617c-.089 0-.071.134 0 .196l1.01.581a.386.386 0 0 0 .34 0l1.064-.617c.089-.053.08-.134 0-.196l-1.019-.581a.364.364 0 0 0-.34 0m1.51-.867l-1.063.617c-.081.044-.072.134 0 .187l1.019.59a.385.385 0 0 0 .339 0l1.064-.616c.08-.054.071-.135 0-.197l-1.019-.59a.374.374 0 0 0-.34 0m1.511-.858l-1.064.608c-.089.053-.08.143 0 .196l1.019.59a.374.374 0 0 0 .34 0l1.063-.607c.09-.054.072-.144 0-.197l-1.01-.59a.37.37 0 0 0-.339 0m1.492-.876l-1.063.617c-.09.053-.072.143 0 .196l1.01.59a.37.37 0 0 0 .339 0l1.064-.607c.089-.054.08-.143 0-.197l-1.019-.59a.413.413 0 0 0-.34 0m1.511-.876l-1.064.617c-.08.053-.071.143 0 .196l1.019.59a.374.374 0 0 0 .34 0l1.064-.616c.08-.045.071-.134 0-.188l-1.019-.59a.386.386 0 0 0-.34 0" fill="#3A2C6D"/><path d="M323.777 227.142l-2.208 1.27c-.08.044-.072.134 0 .196l1.019.581a.386.386 0 0 0 .34 0l2.198-1.269c.081-.054.072-.143 0-.197l-1.01-.59a.383.383 0 0 0-.339 0m-.706-1.278l-1.064.617c-.089.054-.08.134 0 .197l1.01.581a.36.36 0 0 0 .34 0l1.063-.617c.09-.045.081-.134 0-.197l-1.01-.581a.385.385 0 0 0-.339 0zm1.501-.867l-1.063.617c-.081.045-.072.134 0 .197l1.019.581a.38.38 0 0 0 .339 0l1.055-.617c.089-.054.08-.134 0-.197l-1.019-.581a.36.36 0 0 0-.34 0m1.555-.867l-1.063.617c-.09.045-.081.134 0 .197l1.019.581a.38.38 0 0 0 .339 0l1.064-.617c.089-.054.071-.134 0-.197l-1.01-.581a.36.36 0 0 0-.34 0m1.457-.866l-1.063.607c-.09.054-.081.143 0 .197l1.01.59a.383.383 0 0 0 .339 0l1.064-.608c.089-.054.08-.143 0-.197l-1.01-.589a.374.374 0 0 0-.34 0z" fill="#6B6B6B"/><path d="M329.086 222.388l-1.064.607c-.089.054-.071.143 0 .197l1.01.59a.373.373 0 0 0 .34 0l1.063-.608c.09-.054.081-.143 0-.197l-1.019-.589a.367.367 0 0 0-.339 0m1.51-.876l-1.063.616c-.081.054-.072.143 0 .197l1.018.59a.373.373 0 0 0 .34 0l1.064-.608c.08-.054.071-.143 0-.197l-1.019-.589a.4.4 0 0 0-.34 0m1.511-.876l-1.064.616c-.089.054-.08.134 0 .197l1.019.581a.358.358 0 0 0 .339 0l1.064-.617c.089-.044.072-.134 0-.196l-1.01-.581a.386.386 0 0 0-.34 0m1.493-.867l-1.063.616c-.09.045-.072.135 0 .197l1.01.581a.382.382 0 0 0 .339 0l1.064-.617c.089-.053.08-.134 0-.196l-1.019-.581a.36.36 0 0 0-.34 0m1.511-.867l-1.064.617c-.08 0-.071.134 0 .196l1.019.581a.386.386 0 0 0 .34 0l1.054-.617c.09-.053.081-.134 0-.196l-1.018-.581a.364.364 0 0 0-.34 0m1.519-.867l-1.063.608c-.09.053-.081.143 0 .196l1.019.59a.412.412 0 0 0 .339 0l1.064-.617c.089-.053.071-.143 0-.196l-1.01-.59a.374.374 0 0 0-.34 0m1.493-.858l-1.064.608c-.089.053-.08.143 0 .196l1.01.59a.374.374 0 0 0 .34 0l1.063-.608c.09-.053.081-.143 0-.196l-1.009-.59a.374.374 0 0 0-.34 0zm3.36-1.948l-2.922 1.689c-.09.053-.072.143 0 .196l1.009.59a.374.374 0 0 0 .34 0l2.932-1.689c.08-.045.071-.134 0-.197l-1.019-.581a.385.385 0 0 0-.34 0" fill="#3A2C6D"/><path d="M321.569 226.696l-1.457.84c-.08.053-.071.143 0 .196l1.019.59a.374.374 0 0 0 .34 0l1.448-.84c.089-.045.071-.134 0-.188l-1.01-.59a.419.419 0 0 0-.34 0m25.803-8.052l-21.361 12.334c-.089.044-.08.134 0 .196l.509.286a.386.386 0 0 0 .34 0l21.361-12.334c.09-.053.072-.143 0-.196l-.509-.295a.355.355 0 0 0-.331 0" fill="#6B6B6B"/><path d="M322.374 219.179l.134.08 3.691 2.128 6.56-3.79.134-.072-3.825-2.216-6.694 3.87z" fill="#BFBFBF"/><path d="M322.508 219.259l3.691 2.128 6.56-3.79-3.691-2.127-6.56 3.789zm-10.69 4.898v.322a1.36 1.36 0 0 0 .67 1.171l13.013 7.507c.203.121.435.183.671.179.238.002.473-.059.679-.179l23.56-13.612a1.346 1.346 0 0 0 .679-1.17v-.322l-24.891 14.363-14.381-8.259z" fill="#E5E5E5"/><path d="M326.583 232.648a1.621 1.621 0 0 0 1.376-.107l23.435-13.532a1.616 1.616 0 0 0 .778-1.117l2.547-15.328v-.259a1.585 1.585 0 0 0-.474-1.136l-24.319 14.086a1.2 1.2 0 0 0-.572.831l-2.771 16.562z" fill="#F4F4F4"/><path d="M326.199 232.442l.161.099.223.107 2.771-16.562a1.198 1.198 0 0 1 .572-.831l24.355-14.059a1.45 1.45 0 0 0-.322-.25l-24.409 14.131a1.17 1.17 0 0 0-.572.822l-2.779 16.543z" fill="#E5E5E5"/><path d="M308.511 166.965s.295 5.818.17 6.337c-.125.518-2.681 2.216-3.414 2.833-.733.617 4.022 5.309 6.346 6.373 2.323 1.063 9.652-1.734 9.831-5.363.179-3.629-1.26-6.632-2.386-6.793-1.126-.161-10.502-3.405-10.502-3.405" fill="#FFCEA9"/><path d="M307.859 174.303s4.227 6.301 10.117 6.891c1.859-1.788 2.029-8.357-.545-10.439 0 0 2.368-1.904 3.986-1.538a8.368 8.368 0 0 1 3.638 4.648 38.023 38.023 0 0 1 2.082 13.505c-.098 6.176 0 21.79 0 21.79s-.894 5.97-6.212 8.937a19.201 19.201 0 0 1-13.987 1.931c-2.985-.697-4.094-2.368-5.121-4.54.268-4.326 1.975-13.237 1.26-18.689-.715-5.452-1.877-9.501-2.172-13.907-.295-4.406.581-4.317 2.789-5.881a35.27 35.27 0 0 1 4.165-2.681" fill="#F4F4F4"/><path d="M314.634 224.479a31.187 31.187 0 0 0-3.307-1.895 6.89 6.89 0 0 1-2.834-1.716c-1.036-1.01-2.735-4.853-3.941-8.589a38.572 38.572 0 0 1-1.43-13.004c.518-5.247 2.404-12.594 2.887-15.614.482-3.021-.501-4.219-1.904-5.363-1.645-1.305-3.924-.724-5.139 3.503a82.02 82.02 0 0 0-2.682 17.929 40.949 40.949 0 0 0 2.056 13.246 47.664 47.664 0 0 0 5.05 10.413c.581.974.769 1.841 1.653 3.834a13.51 13.51 0 0 0 3.87 5.148c1.475 1.064 2.181 1.207 2.53 1.001.348-.206.339-.724-.277-1.287a11.002 11.002 0 0 1-2.682-2.958s1.287 1.296 2.137 2.011c.752.63 1.585 1.159 2.475 1.573.894.375 2.065-.358 1.457-.939-.608-.581-1.242-.894-2.485-1.939-.67-.561-1.27-1.2-1.787-1.904a20.652 20.652 0 0 0 2.744 1.787c.753.46 1.621.695 2.502.68.465 0 1.019-.662.161-1.278a16.652 16.652 0 0 1-3.28-2.235c-.947-.947-1.484-1.787-1.215-1.787.268 0 .786.581 1.894.893 1.109.313 2.297 0 2.44-.581.143-.58.099-.491-.938-1.009m7.06-66.113c-.697-4.522-3.95-7.945-8.607-7.686a8.983 8.983 0 0 0-8.481 9.474 8.931 8.931 0 0 0 3.914 6.882c.165.686.405 1.351.715 1.984 1.654 1.922 6.641 3.119 8.044 2.914 1.841-.268 2.833-1.037 3.709-3.048 1.547-3.575 1.064-8.285.68-10.52" fill="#FFCEA9"/><path d="M308.511 166.956l.429-3.942s-3.226-8.338 4.389-6.739c5.023 1.064 6.256 1.52 7.811-1.85 1.555-3.369-3.861-6.408-10.269-5.568a8.856 8.856 0 0 0-7.919 8.938c.17 2.485.831 7.499 5.559 9.116" fill="#6B6B6B"/><path d="M295.48 189.595s4.156 4.129 9.072 2.941c.697-.474 2.386-10.136 2.386-10.136s0-5.362-4.102-5.21c-4.103.152-7.356 12.405-7.356 12.405zm31.371-8.017s2.172-.107 3.066-1.367c-.161-2.163-2.932-10.377-8.5-10.994a10.34 10.34 0 0 1 3.477 4.201 53.666 53.666 0 0 1 1.957 8.16z" fill="#EDEDED"/><path d="M56.093 3.548c1.1-1.787 9.474-2.922 12.236 4.174 1.045 2.681.893 9.581 1.787 13.907.894 4.326 2.932 6.775 3.674 10.287.741 3.513-.465 9.385-8.938 10.43-8.473 1.047-14.962-1.93-16.982-4.629-2.02-2.7-2.037-8.42 0-11.503 2.038-3.083 3.656-5.577 3.575-9.59l4.648-13.076z" fill="#F99422"/><path d="M61.625 2.36S55.315.572 51.49 3.96a9.358 9.358 0 0 0-2.681 9.348c.51 1.993 1.528 4.71 3.11 4.862 1.582.152 9.706-15.81 9.706-15.81z" fill="#F99422"/><path d="M64.039 19.538s-.412 7.034-.286 7.543c.125.51 2.761 1.02 3.503 1.636.742.617-3.825 7.749-6.149 8.803-2.324 1.055-9.51-1.635-10.01-5.21-.456-3.298 2.064-5.855 3.03-6.748.66-.046 1.323-.046 1.984 0l.205-3.414a479.119 479.119 0 0 0 7.723-2.566" fill="#FFCEA9"/><path d="M43.348 57.076a37.144 37.144 0 0 1-7.016 7.293 36.477 36.477 0 0 0-2.396 2.762 10.61 10.61 0 0 1-4.7 3.128c-1.592.411-2.262.304-2.53 0-.268-.304-.143-.76.554-1.028a8.812 8.812 0 0 0 3.083-1.626s-1.483.679-2.413 1.01a9.494 9.494 0 0 1-2.6.51c-.894 0-1.788-1.02-1.1-1.315.688-.295 1.323-.322 2.681-.831a8.622 8.622 0 0 0 2.038-1.046c-.946.282-1.915.482-2.896.6a4.47 4.47 0 0 1-2.422-.278c-.41-.179-.768-.894.152-1.17a13.71 13.71 0 0 0 3.495-.805c1.072-.492 1.787-1.001 1.51-1.108-.277-.108-.893.232-1.93.152-1.037-.08-2.083-.76-2.074-1.341.01-.581.233-.26 1.287-.349 1.055-.09 1.895-.572 3.405-.572 1.132.045 2.263-.09 3.352-.402 1.144-.34 3.718-3.423 5.694-6.256a41.115 41.115 0 0 0 5.04-10.207c1.189-3.897 2.601-11.19 3.575-13.72.975-2.529 2.744-3.69 4.398-3.744 1.94-.063 2.77 2.493 2.252 4.7-.894 3.87-5.22 18.77-10.475 25.67" fill="#FFCEA9"/><path d="M65.004 27.77c1.975.303 4.236 1.358 4.55 2.44.357 1.268 1.143 7.212-.573 11.743-1.716 4.532-3.646 12.692-4.63 14.65 0 0-7.829 1.394-14.729-2.879 0 0-.411-7.874-.438-10.466-6.363-5.559-.893-12.396 4.47-17.723a11.716 11.716 0 0 1 1.938 0s-4.808 5.684-1.465 8.938c7.15-2.172 8.589-5.363 10.877-6.668" fill="#F4F4F4"/><path d="M50.9 10.815c.706-4.47 3.968-7.928 8.634-7.66a8.938 8.938 0 0 1 4.469 16.383 9.082 9.082 0 0 1-.715 1.975c-1.663 1.922-6.042 3.137-7.49 3.155-1.251 0-2.333-1.153-3.504-3.092-2.44-4.05-1.787-8.527-1.43-10.726" fill="#FFCEA9"/><path d="M60.973 3.253c3.271.644 5.962 1.564 6.846 4.773.608 2.217 1.403 6.426.644 8.205l-.465 1.278-3.96 2.047s-1.85-1.547-1.268-6.06a3.28 3.28 0 0 0-.564-1.707 5.142 5.142 0 0 1-.545-1.359 5.094 5.094 0 0 0-2.565-2.78c-2.95-1.653-7.266-.223-7.865.367a8.607 8.607 0 0 1 9.742-4.764z" fill="#F99422"/><path d="M42.972 111.399c-1.653 1.35-4.227.42-4.352.546-1.68 1.68-4.192 3.155-6.06 4.62-1.028.814-2.637 1.904-2.342 3.459.519 2.789 4.979 1.931 6.668 1.082 1.69-.849 3.057-2.27 4.647-3.263 1.136-.706 2.253-1.063 2.432-2.502.107-.894-.698-3.968-.993-3.942z" fill="#6B6B6B"/><path d="M43.947 114.778c-.224 1.376-1.323 1.787-2.45 2.458-1.626 1.001-3.047 2.457-4.727 3.307-1.68.849-5.443 1.582-6.489-.42.59 2.681 4.978 1.841 6.65 1.001 1.671-.841 3.056-2.271 4.647-3.263 1.135-.706 2.252-1.063 2.431-2.502a2.687 2.687 0 0 0 0-.581" fill="#1B1B1B"/><path d="M34.91 106.93c-1.51 1.234-3.798.546-3.914.662-1.537 1.546-3.825 2.869-5.541 4.218-.939.742-2.414 1.734-2.146 3.164.474 2.557 4.559 1.788 6.105.992 1.546-.795 2.797-2.082 4.263-2.985 1.037-.643 2.065-.983 2.226-2.297.098-.795-.724-3.78-.992-3.754z" fill="#6B6B6B"/><path d="M35.885 110.121c-.206 1.252-1.216 1.6-2.243 2.244-1.484.893-2.79 2.252-4.335 3.03-1.546.777-4.979 1.438-5.98-.385.546 2.458 4.559 1.689 6.087.894 1.528-.796 2.797-2.074 4.263-2.976 1.037-.653 2.065-.983 2.226-2.297a2.2 2.2 0 0 0 0-.528" fill="#1B1B1B"/><path d="M57.827 58.336a24.57 24.57 0 0 1-13.183-1.903c.071 1.394.143 2.68.143 2.68-5.363 3.79-16.088 10.172-16.83 14.578.697 13.916 2.816 33.794 3.414 34.08 1.69.804 2.87.67 3.656-.125 0 0 3.387-11.79 2.404-29.093 0 0 18.77-8.312 19.994-12.852.706-2.619.563-2.95.51-5.658 0-.563-.055-1.117-.108-1.671" fill="#FFCEA9"/><path d="M64.056 56.53c-3.718 1.735-7.15 1.95-11.333 1.52.054 1.86.268 5.363.268 5.363-5.362 3.79-16.087 10.171-16.838 14.577.706 13.916 2.002 34.071 2.619 34.321a4.474 4.474 0 0 0 4.468-.518s3.388-11.619 2.405-28.94c0-.322 16.087-8.241 18.125-10.341 2.19-2.244 2.44-5.202 2.387-8.17-.054-2.788-.894-5.085-2.083-7.811" fill="#FFCEA9"/><path d="M67.998 59.48s5.952 10.538-3.968 15.954c-10.458 5.711-16.839 7.052-16.839 7.052l-1.564.366s.742 3.826 0 10.949c0 0-7.463 2.61-16.982-5.774L25.49 77.874l-.375-2.681a5.64 5.64 0 0 1 1.59-5.13c2.28-2.065 9.52-7.365 14.024-10.404a132.604 132.604 0 0 0 8.098-5.935l.786-.732s5.363 4.245 15.096 2.824a15.687 15.687 0 0 1 3.316 3.664" fill="#6A9A9A"/><path d="M62.1 75.112c.893-.616 1.5-1.501 2.877-2.27a11.367 11.367 0 0 0 2.896-2.064c.894-.894 2.261-4.738 2.967-8.473a36.958 36.958 0 0 0-.214-12.576 87.527 87.527 0 0 0-4.979-14.46c-1.323-2.798-.58-4.47.626-5.739 1.421-1.457 2.905-1.421 4.585 2.485 1.68 3.905 4.37 11.288 5.228 16.981a37.48 37.48 0 0 1-.17 12.817 47.127 47.127 0 0 1-3.413 10.725c-.438 1.01-.51 1.86-1.109 3.88a13.033 13.033 0 0 1-3.083 5.362c-1.287 1.198-1.94 1.43-2.297 1.269-.358-.16-.42-.653.107-1.27a10.58 10.58 0 0 0 2.163-3.154s-1.082 1.403-1.788 2.19a10.287 10.287 0 0 1-2.171 1.787c-.787.474-2.03-.08-1.51-.715.518-.635 1.08-.983 2.135-2.163a10.467 10.467 0 0 0 1.448-2.038 19.533 19.533 0 0 1-2.413 2.038 4.469 4.469 0 0 1-2.315.956c-.438 0-1.046-.509-.304-1.206a16.454 16.454 0 0 0 2.878-2.404c.787-1.02 1.207-1.841.948-1.833-.26.01-.68.644-1.699 1.118-1.019.473-2.198.312-2.404-.25-.206-.564.107-.367 1.037-.993" fill="#FFCEA9"/><path d="M73.459 37.27s-3.575 3.2-7.624 2.547l-1.591-6.703s-1.064-3.575 1.966-4.88c3.03-1.305 5.908 2.18 7.213 9.036m-19.77-11.735s-3.906-1.189-8.044 7.463l1.546.938s4.085-6.175 6.507-8.401" fill="#EDEDED"/><path d="M26.706 62.85l13.916-8.044a.796.796 0 0 1 .795 0l24.4 14.086-14.3 8.267-24.811-14.31z" fill="#F4F4F4"/><path d="M51.856 73.995l1.064.617c.09 0 .072.134 0 .196l-1.019.581a.367.367 0 0 1-.33 0l-1.091-.634c-.09-.054-.08-.134 0-.197l1.019-.58a.358.358 0 0 1 .34 0m-1.493-.85l1.063.617c.09 0 .08.134 0 .188l-1.018.59a.411.411 0 0 1-.34 0l-1.064-.617c-.09-.054-.071-.143 0-.197l1.01-.59a.376.376 0 0 1 .34 0" fill="#6B6B6B"/><path d="M48.827 72.243l1.063.617c.08.054.072.134 0 .197l-1.019.59a.357.357 0 0 1-.33 0l-1.064-.617c-.09-.045-.08-.134 0-.188l1.019-.59a.384.384 0 0 1 .34 0m-1.502-.867l1.064.617c.089.054.08.134 0 .197l-1.01.58a.357.357 0 0 1-.34 0l-1.064-.616c-.089-.045-.08-.134 0-.197l1.01-.58a.385.385 0 0 1 .34 0zm-1.501-.867l1.063.617c.08.045.072.134 0 .197l-1.019.58a.384.384 0 0 1-.34 0l-1.063-.616c-.08-.054-.071-.134 0-.197l1.019-.58a.357.357 0 0 1 .34 0zm-1.511-.867l1.064.608c.089.054.08.143 0 .197l-1.01.59a.375.375 0 0 1-.34 0l-1.064-.608c-.089-.054-.08-.143 0-.197l1.01-.59a.375.375 0 0 1 .34 0zm-1.528-.875l1.063.616c.08.054.072.134 0 .197l-1.019.59a.376.376 0 0 1-.34 0l-1.063-.617c-.08 0-.072-.134 0-.188l1.019-.59a.384.384 0 0 1 .34 0m-1.484-.875l1.064.616c.089.045.08.134 0 .197l-1.01.58a.384.384 0 0 1-.34 0l-1.063-.616c-.09-.054-.081-.134 0-.197l1.01-.58a.357.357 0 0 1 .339 0zm-1.502-.867l1.064.607c.08.054.072.143 0 .197l-1.019.59a.411.411 0 0 1-.34 0l-1.063-.617c-.08-.053-.072-.143 0-.196l1.019-.59a.376.376 0 0 1 .34 0m-1.484-.867l1.063.616c.09.054.08.143 0 .197l-1.063.626a.376.376 0 0 1-.34 0l-1.063-.608c-.09-.054-.08-.143 0-.197l1.01-.59a.41.41 0 0 1 .34 0m-1.476-.911l1.064.616c.08.054.072.134 0 .197l-1.019.581a.357.357 0 0 1-.34 0l-1.063-.617c-.08-.044-.072-.134 0-.196l1.019-.581a.383.383 0 0 1 .34 0zm-1.51-.867l1.063.617c.09.044.08.134 0 .196l-1.01.581a.384.384 0 0 1-.34 0l-1.063-.617c-.09-.053-.08-.134 0-.196l1.01-.581a.359.359 0 0 1 .34 0zm-1.502-.867l1.064.608c.08.053.072.143 0 .196l-1.019.59a.375.375 0 0 1-.34 0l-1.063-.608c-.08-.053-.072-.143 0-.196l1.019-.59a.375.375 0 0 1 .34 0zm-2.234-1.323l1.788 1.028c.089.053.08.143 0 .197l-1.01.59a.375.375 0 0 1-.34 0L30.2 63.028c-.089-.054-.08-.144 0-.197l1.02-.59a.376.376 0 0 1 .339 0" fill="#3A2C6D"/><path d="M51.079 71.859l1.063.617c.09.053.08.143 0 .196l-1.01.59a.376.376 0 0 1-.34 0l-1.063-.608c-.09-.053-.08-.143 0-.196l1.01-.59a.411.411 0 0 1 .34 0m-1.511-.876l1.064.617c.09.044.08.134 0 .196l-1.019.581a.385.385 0 0 1-.34 0l-1.117-.599c-.09-.053-.071-.134 0-.196l1.01-.581a.358.358 0 0 1 .34 0" fill="#6B6B6B"/><path d="M48.067 70.125l1.054.608c.09.053.08.143 0 .197l-1.018.59a.375.375 0 0 1-.34 0l-1.064-.608c-.08-.054-.071-.143 0-.197l1.02-.59a.375.375 0 0 1 .339 0m-1.502-.875l1.064.616c.08.045.072.134 0 .197l-1.019.58a.384.384 0 0 1-.34 0l-1.063-.616c-.08 0-.072-.134 0-.197l1.019-.58a.384.384 0 0 1 .34 0zm-1.501-.868l1.063.617c.09.054.081.143 0 .197l-1.018.59a.375.375 0 0 1-.34 0l-1.072-.608c-.09 0-.072-.134 0-.188l1.01-.59a.411.411 0 0 1 .34 0m-1.494-.885l1.064.617c.09 0 .08.134 0 .197l-1.019.58a.385.385 0 0 1-.34 0l-1.063-.616c-.08-.054-.072-.134 0-.197l1.019-.58a.34.34 0 0 1 .33 0m-1.492-.868l1.063.608c.08.054.072.143 0 .197l-1.019.59a.375.375 0 0 1-.34 0l-1.063-.608c-.08-.054-.071-.143 0-.197l1.02-.59a.375.375 0 0 1 .339 0zm-1.511-.831l1.064.617c.09.044.072.134 0 .197l-1.01.58a.384.384 0 0 1-.34 0l-1.063-.616c-.09-.054-.08-.134 0-.197l1.019-.58a.358.358 0 0 1 .34 0m-1.52-.895l1.064.608c.089.054.08.143 0 .197l-1.01.59a.375.375 0 0 1-.34 0l-1.064-.608c-.089-.054-.08-.143 0-.197l1.01-.59a.376.376 0 0 1 .34 0zm-1.51-.893l1.063.616c.09.054.08.134 0 .197l-1.019.58a.359.359 0 0 1-.34 0l-1.063-.616c-.09 0-.072-.134 0-.197l1.01-.58a.384.384 0 0 1 .34 0m-1.502-.894l1.064.608c.089.053.08.143 0 .196l-1.02.59a.375.375 0 0 1-.339 0l-1.064-.608c-.08-.053-.071-.143 0-.196l1.002-.59a.357.357 0 0 1 .33 0m-1.474-.849l1.063.616c.08.054.072.135 0 .197l-1.019.581a.357.357 0 0 1-.34 0l-1.063-.617c-.08-.044-.072-.134 0-.196l1.019-.581a.384.384 0 0 1 .34 0z" fill="#3A2C6D"/><path d="M52.625 72.735l1.788 1.037c.089 0 .08.134 0 .187l-1.01.59a.412.412 0 0 1-.34 0l-1.788-1.037c-.089-.053-.08-.134 0-.196l1.02-.581a.358.358 0 0 1 .339 0" fill="#6B6B6B"/><path d="M31.621 62.242l1.064.617a.322.322 0 0 0 .313 0l1.072-.617c.09-.054.09-.134 0-.188h-.089a.09.09 0 0 1 0-.17l1.135-.652c.09-.053.09-.134 0-.188l-.67-.393a.366.366 0 0 0-.322 0l-1.055.608-.223.125-.161.098-.152.09-.894.527c-.09.054-.09.134 0 .179" fill="#3A2C6D"/><path d="M57.684 70.626l1.064.607c.089.054.08.143 0 .197l-1.02.59a.376.376 0 0 1-.339 0l-1.064-.608c-.089-.053-.071-.143 0-.197l1.01-.59a.375.375 0 0 1 .34 0m-1.475-.866l1.064.607c.089.054.08.143 0 .197l-1.064.617a.376.376 0 0 1-.34 0l-1.063-.608c-.09-.054-.072-.143 0-.197l1.01-.59a.375.375 0 0 1 .34 0m-1.467-.893l1.064.607c.09.054.08.143 0 .197l-1.019.59a.375.375 0 0 1-.34 0l-1.063-.608c-.09-.053-.071-.143 0-.196l1.01-.59a.375.375 0 0 1 .34 0" fill="#6B6B6B"/><path d="M41.9 61.5l1.063.617c.09.054.08.134 0 .197l-1.019.59a.375.375 0 0 1-.34 0l-1.063-.617c-.09-.045-.071-.134 0-.197l1.01-.58a.383.383 0 0 1 .34 0m-1.501-.877l1.063.617c.09.054.08.134 0 .197l-1.019.59a.375.375 0 0 1-.34 0l-1.063-.617c-.09-.045-.072-.134 0-.188l1.01-.59a.385.385 0 0 1 .34 0m-1.493-.876l1.063.617c.09.054.08.134 0 .197l-1.019.59a.375.375 0 0 1-.34 0l-1.063-.617c-.09-.045-.071-.134 0-.197l1.01-.58a.385.385 0 0 1 .34 0m-1.448-.876l1.064.616c.089.054.08.134 0 .197l-1.02.59a.376.376 0 0 1-.339 0l-1.064-.617c-.089-.045-.071-.134 0-.197l1.01-.58a.385.385 0 0 1 .34 0" fill="#3A2C6D"/><path d="M52.795 67.792l1.448.84c.09.054.08.143 0 .197l-1.019.59a.376.376 0 0 1-.34 0l-1.447-.84c-.09 0-.08-.134 0-.188l1.018-.59a.411.411 0 0 1 .34 0" fill="#6B6B6B"/><path d="M43.392 62.367l1.457.84c.08.054.072.134 0 .197l-1.019.59a.375.375 0 0 1-.34 0l-1.474-.858c-.09-.045-.071-.134 0-.197l1.01-.58a.385.385 0 0 1 .34 0" fill="#3A2C6D"/><path d="M45.287 63.458l7.07 4.084c.09.054.08.143 0 .197l-1.01.59a.375.375 0 0 1-.34 0l-7.07-4.085c-.089-.044-.08-.134 0-.197l1.02-.58a.384.384 0 0 1 .34 0m6.836 7.32l1.064.607c.08.054.071.143 0 .197l-1.019.59a.41.41 0 0 1-.34 0l-1.063-.617c-.08-.054-.072-.143 0-.197l1.019-.59a.375.375 0 0 1 .34 0m-1.511-.857l1.064.607c.09.054.08.143 0 .197l-1.02.59a.375.375 0 0 1-.339 0l-1.063-.608c-.09-.054-.072-.143 0-.197l1.01-.59a.375.375 0 0 1 .34 0" fill="#6B6B6B"/><path d="M49.122 69.044l1.063.616c.09.054.072.134 0 .197l-1.01.59a.375.375 0 0 1-.34 0l-1.063-.617c-.09-.044-.08-.134 0-.196l1.019-.581a.384.384 0 0 1 .34 0m-1.511-.876l1.064.616c.08.054.071.134 0 .197l-1.02.58a.357.357 0 0 1-.339 0l-1.064-.616c-.08-.044-.071-.134 0-.196l1.02-.581a.384.384 0 0 1 .339 0zm-1.51-.867l1.063.616c.09 0 .08.135 0 .197l-1.019.581a.385.385 0 0 1-.34 0l-1.063-.617c-.09-.053-.072-.134 0-.196l1.01-.581a.357.357 0 0 1 .34 0m-1.52-.867l1.064.616c.09.045.071.135 0 .188l-1.01.59a.41.41 0 0 1-.34 0l-1.063-.617c-.09-.053-.08-.143 0-.196l1.019-.59a.375.375 0 0 1 .34 0m-1.485-.858l1.064.608c.08.053.072.143 0 .196l-1.019.59a.376.376 0 0 1-.34 0l-1.063-.608c-.08-.053-.072-.143 0-.196l1.019-.59a.376.376 0 0 1 .34 0zm-1.51-.876l1.064.617c.089.053.08.143 0 .196l-1.02.59a.375.375 0 0 1-.339 0l-1.064-.616c-.089 0-.071-.135 0-.188l1.01-.59a.41.41 0 0 1 .34 0m-1.475-.876l1.064.617c.09.053.08.134 0 .196l-1.01.581a.357.357 0 0 1-.34 0l-1.063-.617c-.09 0-.08-.133 0-.196l1.01-.581a.384.384 0 0 1 .34 0zm-1.519-.867l1.064.617c.08.044.071.134 0 .196l-1.02.581a.358.358 0 0 1-.339 0l-1.064-.616c-.08 0-.071-.135 0-.197l1.02-.581a.384.384 0 0 1 .339 0zm-1.51-.866l1.063.616c.09.044.08.134 0 .196l-1.019.581a.383.383 0 0 1-.34 0l-1.063-.616c-.09-.054-.071-.134 0-.197l1.01-.58a.357.357 0 0 1 .34 0m-1.493-.868l1.064.608c.089.053.08.143 0 .196l-1.01.59a.376.376 0 0 1-.34 0l-1.064-.607c-.089-.054-.08-.143 0-.197l1.01-.59a.375.375 0 0 1 .34 0z" fill="#3A2C6D"/><path d="M53.635 71.653l2.199 1.314c.089.054.08.134 0 .197l-1.01.58a.357.357 0 0 1-.34 0l-2.199-1.268c-.089-.054-.08-.143 0-.197l1.02-.59a.375.375 0 0 1 .339 0m.688-1.314l1.064.608c.09.054.08.143 0 .197l-1.019.59a.375.375 0 0 1-.34 0l-1.081-.59c-.08-.054-.072-.143 0-.197l1.019-.59a.357.357 0 0 1 .33 0m-1.475-.885l1.064.608c.09.054.08.143 0 .197l-1.01.59a.375.375 0 0 1-.34 0l-1.09-.617c-.089-.054-.08-.143 0-.197l1.01-.59a.375.375 0 0 1 .34 0m-1.475-.867l1.063.617c.09.054.072.134 0 .197l-1.01.59a.376.376 0 0 1-.34 0l-1.098-.644c-.09 0-.08-.134 0-.196l1.018-.581a.384.384 0 0 1 .34 0m-1.474-.849l1.063.616c.08 0 .072.134 0 .197l-1.019.58a.359.359 0 0 1-.34 0l-1.063-.616c-.08 0-.071-.134 0-.197l1.019-.58a.384.384 0 0 1 .34 0z" fill="#6B6B6B"/><path d="M48.317 66.899l1.064.616c.09 0 .08.134 0 .197l-1.02.58a.384.384 0 0 1-.339 0l-1.063-.616c-.09-.053-.072-.134 0-.196l1.01-.581a.358.358 0 0 1 .34 0m-1.493-.867l1.063.616c.09 0 .072.134 0 .188l-1.01.59a.41.41 0 0 1-.34 0l-1.054-.599c-.09-.054-.08-.143 0-.197l1.019-.59a.375.375 0 0 1 .34 0m-1.52-.875l1.055.652c.08.054.071.143 0 .197l-1.02.59a.375.375 0 0 1-.339 0l-1.063-.608c-.08-.054-.072-.143 0-.197l1.019-.59a.375.375 0 0 1 .34 0m-1.503-.911l1.064.608c.09.053.08.142 0 .196l-1.019.59a.375.375 0 0 1-.34 0l-1.063-.608c-.08-.053-.072-.143 0-.196l1.019-.59a.357.357 0 0 1 .33 0m-1.492-.876l1.064.617c.089.053.08.134 0 .196l-1.01.59a.375.375 0 0 1-.34 0l-1.064-.617c-.089-.044-.08-.134 0-.196l1.01-.581a.384.384 0 0 1 .34 0m-1.502-.876l1.1.58c.09.055.071.135 0 .198l-1.01.58a.357.357 0 0 1-.34 0l-1.063-.616c-.09-.045-.08-.134 0-.197l1.018-.58a.383.383 0 0 1 .34 0m-1.545-.832l1.063.617c.08.044.071.134 0 .196l-1.02.581a.384.384 0 0 1-.339 0l-1.063-.617c-.08-.053-.072-.134 0-.196l1.018-.581a.358.358 0 0 1 .34 0zm-3.37-1.94l2.922 1.69c.09.044.08.134 0 .196l-1.019.581a.385.385 0 0 1-.34 0l-2.922-1.689c-.09-.054-.08-.143 0-.197l1.019-.59a.375.375 0 0 1 .34 0" fill="#3A2C6D"/><path d="M55.843 71.242l1.448.84c.089.045.08.135 0 .188l-1.01.59a.412.412 0 0 1-.34 0l-1.475-.787c-.09-.053-.08-.142 0-.196l1.02-.59a.375.375 0 0 1 .339 0M30.04 63.136L51.4 75.47c.09.053.081.134 0 .196l-.509.295a.358.358 0 0 1-.33 0L29.19 63.627c-.08 0-.072-.134 0-.196l.509-.286a.384.384 0 0 1 .34 0" fill="#6B6B6B"/><path d="M55.306 63.95l-.134.08-3.682 2.127-6.543-3.78-.134-.072 3.817-2.208 6.676 3.852z" fill="#BFBFBF"/><path d="M55.163 64.03l-3.673 2.127-6.542-3.78 3.682-2.12 6.533 3.773zM65.8 68.91v.33a1.34 1.34 0 0 1-.671 1.162l-12.96 7.481a1.367 1.367 0 0 1-1.35 0l-23.452-13.54a1.333 1.333 0 0 1-.67-1.162v-.331l24.793 14.3 14.31-8.24z" fill="#E5E5E5"/><path d="M51.49 77.177v.894a1.41 1.41 0 0 1-.67-.17L27.367 64.343a1.34 1.34 0 0 1-.68-1.162v-.331L51.49 77.177z" fill="#E5E5E5"/><path d="M51.115 77.374a1.6 1.6 0 0 1-1.368-.108L26.393 63.78a1.61 1.61 0 0 1-.778-1.108L23.06 47.423a1.305 1.305 0 0 1 0-.259 1.609 1.609 0 0 1 .465-1.135L47.8 60.043a1.206 1.206 0 0 1 .572.823l2.744 16.508z" fill="#F4F4F4"/><path d="M51.49 77.177l-.16.09-.215.107-2.762-16.508a1.206 1.206 0 0 0-.572-.823L23.506 46.03a1.65 1.65 0 0 1 .322-.241l24.328 14.04a1.17 1.17 0 0 1 .572.823l2.762 16.526z" fill="#E5E5E5"/></svg>